<svg width="193" height="77" viewBox="0 0 193 77" fill="none" xmlns="http://www.w3.org/2000/svg">
<rect y="0.998779" width="75" height="75" rx="37.5" fill="#995277"/>
<path d="M10.0294 75.6742C9.94467 75.7249 9.88259 75.8066 9.85731 75.9023C9.83202 75.998 9.84552 76.0997 9.89493 76.1851C9.94433 76.2705 10.0257 76.3329 10.1213 76.3587C10.2168 76.3846 10.3186 76.3715 10.4048 76.3234C10.4048 76.3234 10.4048 76.3234 10.4048 76.3234C15.1471 72.8207 16.681 67.0981 18.5747 61.9439C21.8011 51.9825 23.7581 41.6209 25.0443 31.228C25.6634 26.0373 26.0948 20.7735 26.1341 15.5207C26.1456 12.8641 26.0686 10.2415 25.7284 7.58736C25.5436 6.2133 25.3143 4.91699 24.8633 3.56087C24.3977 2.37518 23.8642 0.523163 21.7086 0.0318448C21.1733 -0.0461228 20.4296 -0.0385311 19.9295 0.745451C19.8287 0.917048 19.7693 1.09458 19.7358 1.26296C19.7012 1.43532 19.6969 1.59217 19.6967 1.672C19.6964 1.86673 19.7178 2.05527 19.753 2.24629C19.7864 2.43075 19.8445 2.65206 19.8937 2.81193C19.9346 2.94619 19.981 3.08357 20.0327 3.22484C20.1362 3.5073 20.2608 3.80553 20.4057 4.1222C35.5751 28.7922 55.6651 51.7662 71.727 73.0321C65.9969 63.6785 61.351 49.5847 58.0485 37.2378C56.4232 30.8654 55.0581 24.3719 54.7167 17.8851C54.2624 11.9763 55.5961 2.65601 62.8141 4.5914C63.571 4.7383 64.1281 4.87934 64.6817 5.07746C65.0162 5.1991 65.282 5.32552 65.4789 5.44637C65.5628 5.49654 65.6967 5.59066 65.7764 5.66745C65.8592 5.74513 65.9072 5.81132 65.9355 5.86415C66.2897 6.17503 65.078 7.46947 64.1316 8.09272C61.9985 9.59358 59.5805 10.7744 57.1208 11.9515C52.3127 14.2141 47.2863 16.2819 42.3084 18.3513C32.3501 22.5161 22.2841 26.4613 12.7548 31.7111C10.3476 33.0779 7.99648 34.5087 5.8447 36.3505C4.80968 37.2543 3.75376 38.3192 3.11153 39.5838C2.37457 40.922 2.46237 42.6805 3.51944 43.8671C3.58249 43.9437 3.67326 43.9925 3.77206 44.0025C3.87085 44.0125 3.96953 43.9829 4.04643 43.9202C4.12334 43.8576 4.17222 43.7669 4.18239 43.6681C4.19257 43.5694 4.16314 43.4706 4.10086 43.3934C4.10086 43.3934 4.10086 43.3934 4.10086 43.3934C2.22907 41.2671 4.42874 38.6068 6.38679 36.9816C8.47333 35.229 10.8068 33.8341 13.1981 32.5071C22.6804 27.3975 32.7705 23.5396 42.7614 19.4571C47.7595 17.4265 52.8067 15.3965 57.6811 13.1475C60.1836 11.9695 62.6214 10.8142 64.9342 9.215C65.2304 9.00369 65.4617 8.83035 65.7544 8.58741C66.0649 8.32812 66.3369 8.07134 66.5683 7.81087C66.6706 7.69659 66.8233 7.51121 66.9455 7.32597C67.0685 7.14092 67.1711 6.95032 67.2473 6.74986C67.4188 6.36981 67.4449 5.65136 67.1833 5.21148C67.0732 4.9996 66.9237 4.8106 66.7477 4.64292C66.5738 4.47508 66.3507 4.32123 66.2243 4.24336C65.9231 4.0556 65.5746 3.89191 65.1727 3.74269C64.511 3.50089 63.8998 3.34467 63.0883 3.18183C61.2787 2.83464 59.4867 2.82917 57.7525 3.7227C56.0828 4.57557 54.9507 6.27212 54.3458 7.84629C53.0918 11.1763 53.0468 14.6284 53.1556 17.9542C53.4692 24.6377 54.8197 31.2022 56.4274 37.6516C60.3035 50.4586 62.2906 63.2615 71.9178 74.8681C58.6878 47.399 36.5296 28.1995 22.2243 3.28988C22.0967 3.01113 21.9917 2.75849 21.9105 2.53694C21.8699 2.42619 21.8353 2.32327 21.8066 2.22923C21.7718 2.11649 21.7356 1.97485 21.7191 1.88245C21.701 1.78565 21.6956 1.71396 21.6959 1.67702C21.6924 1.63396 21.7159 1.63952 21.6529 1.75793C21.5914 1.87604 21.4262 1.97807 21.3627 1.98892C21.2914 2.00743 21.3062 1.98981 21.3964 2.00519C27.8855 18.3927 22.3119 42.2988 17.4309 61.5812C15.7309 66.689 14.1704 72.461 10.0294 75.6742Z" fill="#EBC4D8"/>
<path d="M101.28 29.1988H100.76V1.19878H102.12L118.76 27.0788V1.19878H119.28V29.1988H116.36L101.28 5.99878V29.1988Z" fill="#F7F7F7"/>
<path d="M123.16 29.1988H122.68L134.64 1.19878L135.08 0.998779L145.16 29.1988H141.76L138.64 20.3988H126.96L123.16 29.1988ZM133.4 5.51878L127.12 19.9988H138.52L133.4 5.51878Z" fill="#F7F7F7"/>
<path d="M149.092 29.1988H148.572V1.19878H149.932L166.573 27.0788V1.19878H167.092V29.1988H164.173L149.092 5.99878V29.1988Z" fill="#F7F7F7"/>
<path d="M170.973 29.1988H170.493L182.453 1.19878L182.893 0.998779L192.973 29.1988H189.573L186.453 20.3988H174.773L170.973 29.1988ZM181.213 5.51878L174.933 19.9988H186.333L181.213 5.51878Z" fill="#F7F7F7"/>
<path d="M99 41.8948C99.928 41.8308 100.748 41.7988 101.46 41.7988C103.436 41.7988 104.424 42.4588 104.424 43.7788C104.424 44.3388 104.288 44.8388 104.016 45.2788C103.744 45.7188 103.276 46.0108 102.612 46.1548L105.012 50.1988H103.896L101.544 46.2268H99.996V50.1988H99V41.8948ZM101.46 41.9188C100.996 41.9188 100.508 41.9468 99.996 42.0028V46.1068H101.772C102.9 46.0588 103.464 45.2908 103.464 43.8028C103.464 43.1948 103.296 42.7308 102.96 42.4108C102.624 42.0828 102.124 41.9188 101.46 41.9188Z" fill="#F7F7F7"/>
<path d="M108.574 50.2468C107.734 50.2468 107.05 50.0068 106.522 49.5268C105.994 49.0468 105.73 48.3068 105.73 47.3068C105.73 46.3068 106.002 45.5308 106.546 44.9788C107.098 44.4268 107.794 44.1508 108.634 44.1508C109.482 44.1508 110.17 44.3908 110.698 44.8708C111.226 45.3508 111.49 46.0908 111.49 47.0908C111.49 48.0908 111.214 48.8668 110.662 49.4188C110.118 49.9708 109.422 50.2468 108.574 50.2468ZM108.658 44.2468C108.05 44.2468 107.546 44.5188 107.146 45.0628C106.746 45.5988 106.546 46.3508 106.546 47.3188C106.546 48.2788 106.73 48.9908 107.098 49.4548C107.466 49.9188 107.954 50.1508 108.562 50.1508C109.17 50.1508 109.674 49.8828 110.074 49.3468C110.474 48.8028 110.674 48.0508 110.674 47.0908C110.674 46.1228 110.49 45.4068 110.122 44.9428C109.754 44.4788 109.266 44.2468 108.658 44.2468Z" fill="#F7F7F7"/>
<path d="M113.285 48.8188C113.285 49.4508 113.453 49.8548 113.789 50.0308C113.949 50.1108 114.153 50.1508 114.401 50.1508C114.905 50.1508 115.353 49.9588 115.745 49.5748C116.145 49.1908 116.361 48.8348 116.393 48.5068V44.1988H117.233V49.3468C117.233 49.5788 117.277 49.7588 117.365 49.8868C117.461 50.0068 117.557 50.0708 117.653 50.0788L117.785 50.1028H118.157V50.1988H117.425C117.097 50.1988 116.845 50.1268 116.669 49.9828C116.501 49.8388 116.413 49.6948 116.405 49.5508L116.393 49.3468V48.8308C116.249 49.1748 115.993 49.4988 115.625 49.8028C115.257 50.0988 114.853 50.2468 114.413 50.2468C113.981 50.2468 113.625 50.2068 113.345 50.1268C113.073 50.0388 112.877 49.9188 112.757 49.7668C112.549 49.5188 112.445 49.1988 112.445 48.8068V44.1988H113.285V48.8188Z" fill="#F7F7F7"/>
<path d="M118.881 44.1988H119.721V45.6868C119.857 45.3188 120.109 44.9708 120.477 44.6428C120.845 44.3148 121.261 44.1508 121.725 44.1508C123.349 44.1508 124.161 45.1028 124.161 47.0068C124.161 49.1668 123.113 50.2468 121.017 50.2468C120.641 50.2468 120.209 50.1588 119.721 49.9828V53.1988H118.881V44.1988ZM121.713 44.2468C121.217 44.2468 120.769 44.4628 120.369 44.8948C119.969 45.3188 119.753 45.7028 119.721 46.0468V49.8748C120.209 50.0588 120.637 50.1508 121.005 50.1508C122.549 50.1508 123.321 49.0988 123.321 46.9948C123.321 45.1628 122.785 44.2468 121.713 44.2468Z" fill="#F7F7F7"/>
<path d="M130.08 50.1988C129.536 50.1988 129.164 50.0948 128.964 49.8868C128.78 49.7108 128.688 49.5588 128.688 49.4308V49.1788C128.296 49.8908 127.668 50.2468 126.804 50.2468C125.796 50.2468 125.224 49.7908 125.088 48.8788C125.072 48.7828 125.064 48.6868 125.064 48.5908C125.064 48.4868 125.08 48.3748 125.112 48.2548C125.144 48.1348 125.236 48.0028 125.388 47.8588C125.692 47.5708 126.36 47.3948 127.392 47.3308C127.648 47.3068 127.884 47.2948 128.1 47.2948C128.316 47.2948 128.512 47.3028 128.688 47.3188V45.3268C128.672 45.3188 128.672 45.2828 128.688 45.2188C128.704 45.1468 128.688 45.0588 128.64 44.9548C128.6 44.8428 128.544 44.7348 128.472 44.6308C128.4 44.5268 128.272 44.4388 128.088 44.3668C127.904 44.2868 127.664 44.2468 127.368 44.2468C127.072 44.2468 126.724 44.3028 126.324 44.4148C125.932 44.5188 125.644 44.6228 125.46 44.7268L125.412 44.6428C126.124 44.3148 126.848 44.1508 127.584 44.1508C128.408 44.1508 128.952 44.2988 129.216 44.5948C129.424 44.8268 129.528 45.0708 129.528 45.3268V49.3468C129.528 49.5788 129.572 49.7588 129.66 49.8868C129.756 50.0068 129.852 50.0708 129.948 50.0788L130.08 50.1028H130.452V50.1988H130.08ZM126.996 50.1508C127.42 50.1508 127.8 50.0068 128.136 49.7188C128.48 49.4228 128.664 49.1388 128.688 48.8668V47.4148C128.472 47.3988 128.252 47.3908 128.028 47.3908C127.812 47.3908 127.596 47.4028 127.38 47.4268C126.772 47.4988 126.376 47.6348 126.192 47.8348C126.008 48.0348 125.916 48.3108 125.916 48.6628C125.916 48.7268 125.92 48.7988 125.928 48.8788C126 49.7268 126.356 50.1508 126.996 50.1508Z" fill="#F7F7F7"/>
<path d="M134.617 44.6188C134.489 44.5148 134.281 44.4268 133.993 44.3548C133.713 44.2828 133.501 44.2468 133.357 44.2468C133.213 44.2468 133.129 44.2468 133.105 44.2468C132.673 44.2548 132.361 44.3668 132.169 44.5828C131.977 44.7908 131.881 45.0268 131.881 45.2908C131.881 45.5548 131.965 45.7788 132.133 45.9628C132.301 46.1388 132.509 46.2788 132.757 46.3828C133.013 46.4788 133.285 46.5908 133.573 46.7188C133.869 46.8468 134.141 46.9788 134.389 47.1148C134.645 47.2428 134.857 47.4348 135.025 47.6908C135.193 47.9388 135.277 48.2508 135.277 48.6268C135.277 49.0028 135.145 49.3228 134.881 49.5868C134.617 49.8508 134.321 50.0268 133.993 50.1148C133.673 50.2028 133.325 50.2468 132.949 50.2468C132.133 50.2468 131.521 50.0668 131.113 49.7068L131.185 49.6348C131.345 49.7868 131.581 49.9108 131.893 50.0068C132.213 50.1028 132.521 50.1508 132.817 50.1508C133.289 50.1508 133.677 50.0228 133.981 49.7668C134.293 49.5028 134.449 49.1788 134.449 48.7948C134.449 48.4028 134.333 48.0908 134.101 47.8588C133.869 47.6188 133.585 47.4348 133.249 47.3068C132.921 47.1708 132.589 47.0388 132.253 46.9108C131.917 46.7748 131.633 46.5908 131.401 46.3588C131.169 46.1188 131.053 45.8428 131.053 45.5308C131.053 45.2188 131.125 44.9668 131.269 44.7748C131.413 44.5748 131.605 44.4348 131.845 44.3548C132.253 44.2188 132.661 44.1508 133.069 44.1508C133.757 44.1508 134.293 44.2788 134.677 44.5348L134.617 44.6188Z" fill="#F7F7F7"/>
</svg>
