<svg width="518" height="459" viewBox="0 0 518 459" fill="none" xmlns="http://www.w3.org/2000/svg">
<path d="M150.613 784.2C150.543 784.271 150.504 784.366 150.504 784.466C150.504 784.565 150.544 784.66 150.614 784.731C150.684 784.801 150.78 784.84 150.879 784.84C150.979 784.84 151.074 784.8 151.144 784.73C151.144 784.73 151.144 784.73 151.144 784.73C183.539 743.192 183.577 687.262 187.484 636.244C183.914 445.98 193.132 223.399 71.1346 74.7487C67.446 75.211 65.0011 76.2276 63.9471 79.4003C63.7373 80.1381 63.6673 80.9313 63.7161 81.7673C63.7406 82.1855 63.7947 82.6151 63.8765 83.0564C63.9234 83.306 63.9517 83.4312 63.9829 83.569C64.0143 83.7067 64.0484 83.8456 64.085 83.9856C64.3777 85.1058 64.8303 86.2995 65.4325 87.5743C66.0141 88.8157 66.8562 90.3152 67.6225 91.5436C68.2198 92.5062 68.8825 93.5061 69.6089 94.5433C71.0617 96.6176 72.7698 98.8412 74.7218 101.21C269.216 290.475 511.836 432.749 704.67 615.18C611.631 539.213 547.359 424.842 484.509 319.473C454.238 265.21 426.027 209.242 407.038 150.327C397.98 120.974 390.236 90.045 393.231 58.9373C394.424 27.2047 421.921 1.84413 453.991 1.83953C461.457 1.33877 467.092 1.26816 473.086 1.78178C476.721 2.11216 479.817 2.6757 482.393 3.45305C483.479 3.77101 485.35 4.44621 486.741 5.21684C488.156 5.98493 489.298 6.85741 490.188 7.82485C497.836 18.0404 485.977 31.4509 479.379 40.1331C463.057 59.5474 443.877 76.0743 424.247 92.7992C385.837 125.063 345.126 155.941 304.861 186.711C224.397 248.466 142.45 308.458 68.7849 378.698C50.2789 396.795 32.4476 415.354 17.5671 436.891C10.4466 447.389 3.62158 459.358 0.999574 471.627C-2.15712 484.816 2.18438 498.487 13.721 506.298C13.8016 506.356 13.902 506.38 14.0002 506.364C14.0983 506.348 14.1862 506.294 14.2444 506.214C14.3027 506.133 14.3265 506.033 14.3107 505.935C14.2949 505.836 14.2408 505.749 14.1602 505.69C14.1602 505.69 14.1602 505.69 14.1602 505.69C2.84847 497.974 -1.3184 484.798 1.77397 471.79C4.3661 459.706 11.1516 447.803 18.2543 437.36C33.0948 415.926 50.9185 397.407 69.4193 379.351C143.076 309.259 225.068 249.345 305.585 187.661C345.879 156.924 386.62 126.077 425.098 93.809C444.769 77.0721 463.975 60.5646 480.445 41.0087C482.53 38.4608 484.122 36.4138 486.064 33.6529C488.112 30.7226 489.795 27.9563 491.085 25.3579C493.955 19.6035 496.093 12.1319 491.225 6.87189C490.214 5.77213 488.943 4.80728 487.414 3.97637C485.909 3.14211 483.937 2.43223 482.802 2.0985C480.108 1.28343 476.923 0.705281 473.215 0.365686C467.106 -0.162227 461.415 -0.0922535 453.891 0.407198C421.464 0.237896 392.825 26.5979 391.739 58.7717C388.693 90.3007 396.485 121.331 405.548 150.797C424.561 209.909 452.776 265.95 483.05 320.291C546.574 425.957 607.942 539.768 705.33 616.904C513.627 427.75 269.984 289.654 76.2653 99.9382C74.3398 97.6016 72.6625 95.4171 71.2469 93.396C70.5391 92.3855 69.8968 91.4159 69.3215 90.4891C68.5832 89.3058 67.7817 87.8759 67.2402 86.72C66.6788 85.5323 66.2718 84.4478 66.0193 83.4804C65.9877 83.3595 65.9585 83.2405 65.9317 83.1233C65.9052 83.0062 65.8812 82.8998 65.8421 82.6916C65.7738 82.3239 65.7308 81.9767 65.7117 81.6507C65.6736 80.9983 65.7314 80.4334 65.8697 79.947C66.5335 77.9889 67.9755 77.1653 71.3435 76.7357C188.878 222.402 182.894 446.543 186.285 636.19C182.554 687.113 182.503 743.098 150.613 784.2Z" fill="#EBC4D8"/>
</svg>
